HIERARCHY
ROOT Hips
{
	OFFSET 0.00000 0.00000 0.00000
	CHANNELS 6 Xposition Yposition Zposition Zrotation Yrotation Xrotation 
	JOINT LHipJoint
	{
		OFFSET 0 0 0
		CHANNELS 3 Zrotation Yrotation Xrotation
		JOINT LeftUpLeg
		{
			OFFSET 2.36090 -1.39315 1.24752
			CHANNELS 3 Zrotation Yrotation Xrotation
			JOINT LeftLeg
			{
				OFFSET 2.06810 -5.68207 0.00000
				CHANNELS 3 Zrotation Yrotation Xrotation
				JOINT LeftFoot
				{
					OFFSET 2.46631 -6.77613 0.00000
					CHANNELS 3 Zrotation Yrotation Xrotation
					JOINT LeftToeBase
					{
						OFFSET 0.26031 -0.71520 1.99545
						CHANNELS 3 Zrotation Yrotation Xrotation
						End Site
						{
							OFFSET 0.00000 -0.00000 1.05957
						}
					}
				}
			}
		}
	}
	JOINT RHipJoint
	{
		OFFSET 0 0 0
		CHANNELS 3 Zrotation Yrotation Xrotation
		JOINT RightUpLeg
		{
			OFFSET -2.25243 -1.39315 1.24752
			CHANNELS 3 Zrotation Yrotation Xrotation
			JOINT RightLeg
			{
				OFFSET -2.17343 -5.97145 0.00000
				CHANNELS 3 Zrotation Yrotation Xrotation
				JOINT RightFoot
				{
					OFFSET -2.52372 -6.93386 0.00000
					CHANNELS 3 Zrotation Yrotation Xrotation
					JOINT RightToeBase
					{
						OFFSET -0.22538 -0.61923 2.11447
						CHANNELS 3 Zrotation Yrotation Xrotation
						End Site
						{
							OFFSET -0.00000 -0.00000 1.10506
						}
					}
				}
			}
		}
	}
	JOINT LowerBack
	{
		OFFSET 0 0 0
		CHANNELS 3 Zrotation Yrotation Xrotation
		JOINT Spine
		{
			OFFSET 0.01594 2.13103 0.08007
			CHANNELS 3 Zrotation Yrotation Xrotation
			JOINT Spine1
			{
				OFFSET 0.01393 2.09723 0.18338
				CHANNELS 3 Zrotation Yrotation Xrotation
				JOINT Neck
				{
					OFFSET 0 0 0
					CHANNELS 3 Zrotation Yrotation Xrotation
					JOINT Neck1
					{
						OFFSET 0.05351 1.38915 0.32494
						CHANNELS 3 Zrotation Yrotation Xrotation
						JOINT Head
						{
							OFFSET 0.00711 1.45992 -0.21666
							CHANNELS 3 Zrotation Yrotation Xrotation
							End Site
							{
								OFFSET -0.00433 1.47702 -0.11056
							}
						}
					}
				}
				JOINT LeftShoulder
				{
					OFFSET 0 0 0
					CHANNELS 3 Zrotation Yrotation Xrotation
					JOINT LeftArm
					{
						OFFSET 2.87198 0.92249 0.11132
						CHANNELS 3 Zrotation Yrotation Xrotation
						JOINT LeftForeArm
						{
							OFFSET 5.52731 -0.00000 0.00000
							CHANNELS 3 Zrotation Yrotation Xrotation
							JOINT LeftHand
							{
								OFFSET 3.11059 -0.00000 0.00000
								CHANNELS 3 Zrotation Yrotation Xrotation
								JOINT LeftFingerBase
								{
									OFFSET 0 0 0
									CHANNELS 3 Zrotation Yrotation Xrotation
									JOINT LeftHandIndex1
									{
										OFFSET 0.41963 -0.00000 0.00000
										CHANNELS 3 Zrotation Yrotation Xrotation
										End Site
										{
											OFFSET 0.33831 -0.00000 0.00000
										}
									}
								}
								JOINT LThumb
								{
									OFFSET 0 0 0
									CHANNELS 3 Zrotation Yrotation Xrotation
									End Site
									{
										OFFSET 0.34348 -0.00000 0.34348
									}
								}
							}
						}
					}
				}
				JOINT RightShoulder
				{
					OFFSET 0 0 0
					CHANNELS 3 Zrotation Yrotation Xrotation
					JOINT RightArm
					{
						OFFSET -2.94710 0.68072 0.32187
						CHANNELS 3 Zrotation Yrotation Xrotation
						JOINT RightForeArm
						{
							OFFSET -5.25396 -0.00000 -0.00000
							CHANNELS 3 Zrotation Yrotation Xrotation
							JOINT RightHand
							{
								OFFSET -3.10567 -0.00000 0.00000
								CHANNELS 3 Zrotation Yrotation Xrotation
								JOINT RightFingerBase
								{
									OFFSET 0 0 0
									CHANNELS 3 Zrotation Yrotation Xrotation
									JOINT RightHandIndex1
									{
										OFFSET -0.49868 -0.00000 0.00000
										CHANNELS 3 Zrotation Yrotation Xrotation
										End Site
										{
											OFFSET -0.40204 -0.00000 0.00000
										}
									}
								}
								JOINT RThumb
								{
									OFFSET 0 0 0
									CHANNELS 3 Zrotation Yrotation Xrotation
									End Site
									{
										OFFSET -0.40818 -0.00000 0.40818
									}
								}
							}
						}
					}
				}
			}
		}
	}
}
MOTION
Frames: 7
Frame Time: 0.0344828
0.00 0.00 0.00 -151.5250 -21.1043 124.7200 0.0000 0.0000 0.0000 -11.9238 -38.1550 81.2020 35.1784 -13.1801 -139.9537 -158.6796 -25.7871 -93.8433 8.3919 16.4001 53.9623 0.0000 0.0000 0.0000 12.1368 -9.6938 -80.3636 -27.6832 -18.5214 113.0106 2.4201 26.2713 11.0063 -1.2208 7.0082 -19.7397 12.8225 5.6956 82.6592 5.2486 10.4287 4.7569 -2.1800 -0.2522 -14.7751 1.1707 -2.0708 -21.4186 1.6183 -5.3600 32.1519 -0.6342 -2.2620 14.7570 -0.0000 -0.0000 0.0000 -72.2393 8.7421 28.6715 30.4953 -41.3141 -11.7352 -0.0000 0.0000 -90.7615 59.4899 12.3427 19.9379 -7.1250 0.0000 -0.0000 32.9875 50.1112 4.5987 -0.0000 -0.0000 0.0000 29.2680 64.3377 54.2886 -41.2586 48.7981 -19.3809 0.0000 -0.0000 -17.8906 -17.8370 -18.9168 5.9555 7.1250 -0.0000 -0.0000 10.2285 -49.5037 -1.1466
0.00 0.00 0.00 -160.4840 -27.5165 119.6440 0.0000 0.0000 0.0000 -14.2174 -71.9235 74.2119 34.0467 -14.3829 -135.2062 -156.6749 -5.8398 -99.4758 8.8665 16.7210 55.6271 0.0000 0.0000 0.0000 9.0985 -29.7519 -84.5724 -28.1419 -18.3300 114.4618 0.3925 20.0766 25.1738 -0.5694 4.8325 -13.4315 8.9112 6.8189 75.5775 5.4187 7.3524 8.7916 0.2529 -0.9424 -11.1133 2.0431 -2.7248 -18.4355 2.1650 -7.2369 33.1075 -0.8764 -3.0316 14.5368 0.0000 -0.0000 0.0000 -63.6037 6.5640 39.1496 40.3976 -48.3037 -18.7356 -0.0000 0.0000 -98.8559 77.7691 24.7782 62.6509 -7.1250 0.0000 -0.0000 82.0074 -66.1017 -107.2434 0.0000 -0.0000 0.0000 43.4770 49.7683 72.9502 -29.4707 40.4354 -11.0647 0.0000 -0.0000 -15.4764 7.3975 -20.1814 -2.5646 7.1250 -0.0000 -0.0000 33.6285 -47.0976 -1.9567
0.00 0.00 0.00 -166.6660 -26.1971 119.9960 0.0000 0.0000 0.0000 12.8739 -80.9723 49.0311 33.8594 -14.5633 -134.4565 -154.3544 0.8268 -105.6762 8.2384 16.2918 53.4167 0.0000 0.0000 0.0000 10.6829 -23.4353 -86.0304 -27.8370 -18.4587 113.4954 -0.3823 15.3060 25.2562 -0.8668 5.9364 -16.5999 7.3004 7.4682 67.5324 4.1637 6.8839 10.6004 -0.8331 -0.4838 -9.3819 4.3834 -1.3678 -15.7642 3.1467 -6.7044 33.7492 -0.7711 -2.5664 14.2312 -0.0000 0.0000 0.0000 -57.7430 2.2729 45.0671 35.0935 -44.8788 -14.8793 -0.0000 0.0000 -105.5380 85.5441 27.2147 80.3298 -7.1250 0.0000 -0.0000 116.5051 -63.4270 -145.0470 -0.0000 0.0000 0.0000 53.8657 50.9809 64.9063 -21.7601 32.7048 -6.4557 0.0000 -0.0000 -8.6998 6.9122 -17.2221 -2.0557 7.1250 -0.0000 -0.0000 31.6694 -44.6324 0.3211
0.00 0.00 0.00 -167.1100 -26.3287 120.3470 0.0000 0.0000 0.0000 20.3736 -81.6132 41.4678 33.8858 -14.5381 -134.5618 -154.0240 0.9055 -106.6179 8.2879 16.3270 53.5933 0.0000 0.0000 0.0000 10.7520 -23.2534 -86.6730 -27.8505 -18.4531 113.5382 -0.4406 15.1039 25.5039 -0.8672 5.9379 -16.6044 6.9989 7.5017 66.2700 4.0937 6.7793 10.8584 -0.8035 -0.4310 -9.1289 4.4546 -1.3074 -15.5935 3.1599 -6.6387 33.7226 -0.7643 -2.5384 14.1806 -0.0000 -0.0000 0.0000 -57.4672 1.8843 45.4431 34.6016 -44.5256 -14.5333 -0.0000 0.0000 -105.9580 86.2578 27.3013 81.8843 -7.1250 0.0000 -0.0000 118.9020 -62.7796 -147.7465 -0.0000 -0.0000 0.0000 54.1855 51.0612 64.2061 -21.3243 32.2049 -6.2219 0.0000 -0.0000 -8.0532 6.9975 -16.9745 -2.0522 7.1250 -0.0000 -0.0000 31.6187 -44.4086 0.5160
0.00 0.00 0.00 -173.0060 -25.4201 117.2370 0.0000 0.0000 0.0000 -27.9917 31.1522 -97.9652 33.6159 14.7905 133.4955 7.7075 31.7000 53.0672 8.5884 16.5355 54.6556 0.0000 0.0000 0.0000 13.8090 -20.1121 -83.3228 -26.4869 -18.9596 109.2883 -1.3094 10.5020 27.7220 -0.7999 5.7086 -15.9411 8.6396 6.2215 59.3409 2.0877 6.2648 12.3950 -3.7549 0.0042 -6.8317 5.4359 -0.5321 -11.9034 3.6665 -6.1888 34.4820 -0.6295 -2.3867 13.7239 0.0000 -0.0000 0.0000 -51.8197 -7.0532 52.3113 27.2963 -38.4603 -9.6829 -0.0000 0.0000 -112.0740 89.7995 28.5786 89.5809 -7.1250 0.0000 -0.0000 130.6526 -59.0382 -160.1231 0.0000 -0.0000 0.0000 51.9651 53.7745 56.6484 -17.5044 27.5179 -4.3178 0.0000 -0.0000 -1.9986 12.5549 -15.4228 -3.3894 7.1250 -0.0000 -0.0000 35.3131 -42.4318 2.6011
0.00 0.00 0.00 -174.3230 -25.3320 117.0730 0.0000 0.0000 0.0000 -20.3385 12.4618 -100.1301 32.9061 15.4104 130.7715 6.9790 16.3629 48.8029 8.1092 16.1990 52.9551 0.0000 0.0000 0.0000 14.8353 -18.5869 -83.3479 -26.3375 -19.0085 108.8291 -1.4617 10.2000 28.5509 -0.7373 5.4856 -15.2989 9.6222 4.4723 56.1400 1.1589 4.9576 12.3926 -4.7615 -0.2320 -6.5378 6.0043 -0.3306 -11.3474 4.0238 -6.2559 34.5249 -0.5989 -2.3669 13.6378 -0.0000 0.0000 0.0000 -51.2818 -6.3306 51.3856 26.0814 -37.2890 -8.9369 -0.0000 0.0000 -110.0520 84.7658 30.5453 79.7818 -7.1250 0.0000 -0.0000 121.6982 -64.4606 -147.6121 -0.0000 0.0000 0.0000 45.5887 55.5907 52.1093 -18.7589 29.1180 -4.9130 0.0000 -0.0000 -1.3439 14.2155 -13.6802 -3.4286 7.1250 -0.0000 -0.0000 35.7403 -40.7727 4.3813
0.00 0.00 0.00 -172.2500 -27.9342 132.6530 0.0000 0.0000 0.0000 -11.7552 -8.2510 -126.6218 32.8628 15.4464 130.6086 4.3917 -0.1577 39.9111 9.5382 17.1418 57.9333 0.0000 0.0000 0.0000 16.7561 -15.1991 -109.7185 -28.8676 -17.9993 116.7892 -1.5074 11.6592 29.9843 -1.2471 7.0806 -19.9543 8.6040 3.3111 28.5946 1.2692 3.4071 14.4267 -4.3874 0.8119 1.1865 5.4467 -0.4626 -11.1840 3.7656 -6.0729 34.1115 -0.5653 -2.3902 13.4075 -0.0000 -0.0000 0.0000 -52.2550 -6.1409 49.7698 25.7344 -36.9452 -8.7275 -0.0000 0.0000 -107.5230 82.6553 31.1944 76.0251 -7.1250 0.0000 -0.0000 117.4315 -66.3136 -141.9801 -0.0000 -0.0000 0.0000 37.8691 55.5120 48.1817 -19.9602 30.5944 -5.5111 0.0000 -0.0000 -2.0524 14.4345 -13.3699 -3.4062 7.1250 -0.0000 -0.0000 35.7582 -40.4862 4.6869
